Coordinates
version=1
nRows=34
nColumns=34
inDegrees=no

Units are S.I. units (second, meters, Newtons, ...)
If the header above contains a line with 'inDegrees', this indicates whether rotational values are in degrees (yes) or radians (no).

endheader
time	pelvis_tilt	pelvis_list	pelvis_rotation	pelvis_tx	pelvis_ty	pelvis_tz	hip_flexion_r	hip_adduction_r	hip_rotation_r	knee_angle_r	ankle_angle_r	subtalar_angle_r	mtp_angle_r	hip_flexion_l	hip_adduction_l	hip_rotation_l	knee_angle_l	ankle_angle_l	subtalar_angle_l	mtp_angle_l	lumbar_extension	lumbar_bending	lumbar_rotation	arm_flex_r	arm_add_r	arm_rot_r	elbow_flex_r	pro_sup_r	arm_flex_l	arm_add_l	arm_rot_l	elbow_flex_l	pro_sup_l
0.95	-0.0461449	0.0835863	-0.0315003	0.90684	0.964745	-0.188087	0.495744	-0.127611	-0.0235379	0.915521	0.0868287	-0.410431	-0.0163862	0.083138	0.131632	-0.161228	0.192538	0.240399	0.0113855	-0.0176394	-0.229815	-0.401115	-0.141105	0.00363568	-0.152516	0.314375	0.652194	1.99169	0.162847	-0.258806	0.0891016	0.524381	1.79049
0.96	-0.0454986	0.0802291	-0.0260306	0.917555	0.965122	-0.190345	0.504684	-0.122735	-0.0281075	0.872421	0.0957891	-0.398581	-0.0163899	0.0613818	0.132035	-0.155633	0.177468	0.242864	0.0209394	-0.0176255	-0.233085	-0.389438	-0.142611	0.00210174	-0.153747	0.301764	0.649764	1.98919	0.166849	-0.254598	0.0993875	0.52851	1.78931
0.97	-0.0446024	0.0765666	-0.0204722	0.928319	0.965323	-0.192627	0.511409	-0.117817	-0.0348348	0.826545	0.10492	-0.381652	-0.0163936	0.0391622	0.132062	-0.149429	0.162173	0.245359	0.0294277	-0.0176116	-0.236323	-0.377011	-0.14386	0.000698647	-0.154939	0.288549	0.647179	1.98721	0.170364	-0.250109	0.108516	0.533655	1.78816
0.98	-0.0434656	0.0725503	-0.0148182	0.939143	0.965339	-0.194935	0.515957	-0.112801	-0.0439454	0.778194	0.11435	-0.359013	-0.0163974	0.0164694	0.131693	-0.142395	0.146651	0.24787	0.0364535	-0.0175977	-0.239486	-0.363765	-0.144899	-0.00059221	-0.156151	0.274831	0.644522	1.98571	0.173364	-0.245337	0.11646	0.539676	1.78744
0.99	-0.0420889	0.068154	-0.00910226	0.950039	0.965162	-0.197268	0.518367	-0.107589	-0.0555086	0.727647	0.124103	-0.330344	-0.0164011	-0.00669961	0.130902	-0.134454	0.130935	0.250393	0.0417665	-0.0175837	-0.242527	-0.349674	-0.145743	-0.00179268	-0.157429	0.260728	0.64188	1.98464	0.175793	-0.240322	0.123298	0.546486	1.78747
1	-0.0404664	0.0633722	-0.00339819	0.96102	0.96479	-0.199618	0.518684	-0.10203	-0.0693936	0.675157	0.134102	-0.295724	-0.0164049	-0.0303293	0.129652	-0.125697	0.115106	0.252953	0.0453152	-0.0175698	-0.245393	-0.33476	-0.146372	-0.00292372	-0.158803	0.246365	0.639331	1.98391	0.177575	-0.235154	0.129217	0.55406	1.78845
1.01	-0.0385921	0.0582194	0.00219098	0.972098	0.964223	-0.201971	0.51697	-0.0959274	-0.0852477	0.620972	0.144183	-0.255698	-0.0164086	-0.0543694	0.127897	-0.116376	0.0993102	0.255614	0.0472613	-0.0175559	-0.248034	-0.319086	-0.146742	-0.00400286	-0.160275	0.231848	0.636932	1.98341	0.178626	-0.229962	0.134487	0.562428	1.79042
1.02	-0.0364687	0.0527299	0.00754946	0.983283	0.963465	-0.20431	0.51332	-0.0890591	-0.102506	0.565362	0.154128	-0.21128	-0.0164123	-0.0787183	0.125596	-0.106864	0.0837578	0.25848	0.047959	-0.017542	-0.250397	-0.302755	-0.146794	-0.00504365	-0.161817	0.217259	0.634714	1.98303	0.178867	-0.224905	0.139431	0.571646	1.79324
1.03	-0.0341167	0.0469621	0.0125673	0.994587	0.962524	-0.206614	0.507885	-0.0812201	-0.120438	0.508668	0.163702	-0.16391	-0.0164161	-0.103214	0.122729	-0.0976079	0.0687259	0.261678	0.0479063	-0.0175281	-0.252436	-0.285911	-0.146468	-0.00605718	-0.163373	0.20264	0.632679	1.98263	0.178248	-0.220148	0.144369	0.581761	1.79663
1.04	-0.0315777	0.0410054	0.017157	1.00601	0.96141	-0.208864	0.500898	-0.0722703	-0.138235	0.451366	0.172703	-0.115335	-0.0164198	-0.127633	0.119318	-0.0890638	0.0545468	0.265345	0.047683	-0.0175142	-0.254107	-0.268732	-0.145717	-0.0070547	-0.164864	0.187994	0.630809	1.98209	0.176755	-0.215842	0.149581	0.59277	1.80025
1.05	-0.0289128	0.0349856	0.0212661	1.01757	0.960133	-0.211041	0.492684	-0.0621871	-0.155128	0.394127	0.181021	-0.0674371	-0.0164236	-0.151707	0.115441	-0.0816555	0.0415892	0.269605	0.0478871	-0.0175003	-0.255377	-0.251434	-0.144517	-0.00805014	-0.166193	0.173283	0.629073	1.98126	0.174423	-0.21211	0.155275	0.604596	1.80372
1.06	-0.026197	0.0290673	0.0248822	1.02926	0.958707	-0.213134	0.48367	-0.0511039	-0.170513	0.337867	0.188695	-0.022022	-0.0164273	-0.175143	0.111238	-0.0757427	0.0302369	0.274551	0.0490863	-0.0174864	-0.256227	-0.234268	-0.142873	-0.00906147	-0.16726	0.158436	0.627434	1.98005	0.171331	-0.209031	0.161566	0.617075	1.80672
1.07	-0.0235094	0.0234468	0.028032	1.04107	0.957145	-0.215136	0.474368	-0.0393253	-0.184065	0.283759	0.195938	0.0193931	-0.016431	-0.197641	0.106907	-0.0716128	0.0208659	0.280238	0.0517887	-0.0174726	-0.256656	-0.217502	-0.140821	-0.0101102	-0.167966	0.143368	0.625861	1.9784	0.167596	-0.206636	0.168483	0.629963	1.80899
1.08	-0.0209242	0.0183353	0.0307736	1.05302	0.955459	-0.217047	0.465348	-0.0273056	-0.195784	0.23319	0.203138	0.055745	-0.0164348	-0.218925	0.102672	-0.0694883	0.0138234	0.286673	0.0564288	-0.0174587	-0.25668	-0.201406	-0.138421	-0.0112197	-0.168226	0.127989	0.624335	1.9763	0.163357	-0.204914	0.175978	0.642949	1.8104
1.09	-0.018501	0.0139338	0.0331849	1.06508	0.953663	-0.218873	0.457177	-0.0155923	-0.20598	0.187652	0.210794	0.0865005	-0.0164385	-0.238755	0.0987547	-0.0695391	0.00940975	0.293817	0.0633593	-0.0174448	-0.256328	-0.186217	-0.13575	-0.0124123	-0.167984	0.112237	0.622846	1.97379	0.158759	-0.203808	0.183945	0.655679	1.81093
1.1	-0.0162779	0.0104014	0.0353514	1.07726	0.951781	-0.220627	0.450354	-0.00474298	-0.215167	0.148588	0.219406	0.111627	-0.0164423	-0.256946	0.0953244	-0.0718902	0.00786174	0.301585	0.0728405	-0.0174309	-0.255632	-0.1721	-0.132889	-0.0137091	-0.167216	0.0960894	0.621395	1.97095	0.153941	-0.203227	0.192245	0.667776	1.81063
1.11	-0.0142711	0.00782254	0.0373547	1.08955	0.949836	-0.222325	0.445241	0.00476548	-0.223903	0.117206	0.229316	0.131459	-0.016446	-0.27338	0.0924581	-0.0766181	0.00934121	0.309845	0.0850199	-0.017417	-0.254627	-0.159118	-0.12991	-0.0151304	-0.165941	0.0795864	0.619992	1.96788	0.149015	-0.203049	0.20072	0.678864	1.80968
1.12	-0.0124816	0.00617611	0.0392629	1.10198	0.947857	-0.223986	0.44201	0.0126157	-0.232605	0.0943195	0.240544	0.14648	-0.0164498	-0.288005	0.0901135	-0.0837343	0.0139308	0.31841	0.099902	-0.0174031	-0.253331	-0.147207	-0.126866	-0.0166986	-0.164225	0.0628388	0.61865	1.96472	0.144063	-0.203131	0.209216	0.68858	1.80826
1.13	-0.0109013	0.00532438	0.0411251	1.11454	0.94587	-0.225628	0.440628	0.0187044	-0.241386	0.0802308	0.252652	0.157089	-0.0164535	-0.30082	0.0881189	-0.0931615	0.0216398	0.327033	0.117311	-0.0173893	-0.251741	-0.136175	-0.123787	-0.018441	-0.162179	0.0460315	0.61738	1.96157	0.139128	-0.203312	0.217593	0.696597	1.80659
1.14	-0.00952464	0.00502436	0.0429663	1.12726	0.943895	-0.227263	0.440883	0.02316	-0.249961	0.0746931	0.264679	0.163398	-0.0164573	-0.311855	0.0861871	-0.104706	0.032421	0.335396	0.136848	-0.0173754	-0.249811	-0.125712	-0.120671	-0.02039	-0.159952	0.0294186	0.616182	1.95853	0.134214	-0.203422	0.225724	0.702627	1.80487
1.15	-0.00836124	0.00495564	0.0447827	1.14017	0.941945	-0.2289	0.442442	0.0263202	-0.257658	0.0769657	0.275196	0.165149	-0.016461	-0.321136	0.0839471	-0.118047	0.0462008	0.343102	0.157879	-0.0173615	-0.247457	-0.115426	-0.117487	-0.0225808	-0.157719	0.0133068	0.615042	1.95566	0.129292	-0.203288	0.233493	0.706437	1.80328
1.16	-0.00742911	0.00474562	0.0465391	1.15328	0.940058	-0.230528	0.444941	0.0286693	-0.263548	0.0859543	0.282496	0.161785	-0.0164648	-0.328646	0.0809941	-0.132749	0.0629204	0.349673	0.179552	-0.0173477	-0.244549	-0.104899	-0.11418	-0.0250458	-0.155668	-0.00197153	0.613926	1.95301	0.124312	-0.202742	0.240787	0.707853	1.80193
1.17	-0.00677864	0.00404185	0.0481698	1.16662	0.938254	-0.232142	0.448065	0.0307565	-0.266669	0.100417	0.284906	0.15266	-0.0164685	-0.334306	0.0769346	-0.148303	0.082585	0.354552	0.200866	-0.0173338	-0.240942	-0.0937257	-0.110674	-0.0278066	-0.153976	-0.0160943	0.612782	1.95057	0.119215	-0.201627	0.24748	0.706765	1.80091
1.18	-0.00647394	0.00254538	0.0495848	1.18018	0.93655	-0.233735	0.451623	0.0330986	-0.266276	0.119176	0.281151	0.137329	-0.0164722	-0.337952	0.0714347	-0.164175	0.105302	0.35711	0.220755	-0.0173199	-0.236497	-0.0815731	-0.106887	-0.0308649	-0.152802	-0.0287877	0.611544	1.94837	0.113945	-0.199803	0.253419	0.703128	1.80025
1.19	-0.00657459	4.24885e-05	0.0506811	1.19397	0.934965	-0.235295	0.455562	0.036101	-0.262041	0.141276	0.27068	0.115797	-0.016476	-0.339348	0.0642518	-0.179839	0.131296	0.356639	0.238158	-0.0173061	-0.231113	-0.0682104	-0.102747	-0.0341934	-0.152266	-0.039859	0.610139	1.94642	0.108461	-0.197152	0.258415	0.696966	1.79993
1.2	-0.00711288	-0.00358276	0.0513575	1.20795	0.933516	-0.236811	0.459935	0.0400165	-0.254129	0.166055	0.253863	0.088647	-0.0164797	-0.338208	0.0552473	-0.194781	0.160898	0.352353	0.252074	-0.0172922	-0.22476	-0.0535243	-0.0982077	-0.0377288	-0.152446	-0.0492168	0.608491	1.94477	0.102745	-0.193583	0.262239	0.688371	1.79993
1.21	-0.00807519	-0.00835649	0.0515296	1.22211	0.932223	-0.238274	0.464817	0.0449526	-0.243146	0.193097	0.232	0.0570059	-0.0164835	-0.334232	0.0443754	-0.208529	0.194514	0.343396	0.261622	-0.0172784	-0.217502	-0.037509	-0.0932621	-0.0413662	-0.153376	-0.0568754	0.606531	1.94351	0.0968021	-0.189041	0.264629	0.677499	1.80021
1.22	-0.00939111	-0.0142378	0.0511419	1.23641	0.931109	-0.239674	0.4702	0.0509214	-0.229972	0.222095	0.207116	0.022355	-0.0164872	-0.32714	0.031656	-0.220671	0.232569	0.32889	0.266122	-0.0172645	-0.209505	-0.0202381	-0.0879512	-0.0449583	-0.155047	-0.0629397	0.604202	1.94278	0.0906652	-0.183508	0.265316	0.664569	1.80074
1.23	-0.0109333	-0.0211496	0.0501739	1.25079	0.930198	-0.241002	0.475911	0.0579062	-0.215547	0.252679	0.181599	-0.0137215	-0.016491	-0.3167	0.0171476	-0.230868	0.275436	0.307994	0.265142	-0.0172506	-0.20102	-0.0018327	-0.0823642	-0.0483185	-0.157416	-0.0675736	0.601459	1.9427	0.084389	-0.177019	0.264056	0.649852	1.80147
1.24	-0.0125353	-0.029006	0.0486411	1.26522	0.929513	-0.242248	0.481566	0.065914	-0.200704	0.284261	0.157797	-0.0497568	-0.0164947	-0.302748	0.000934528	-0.238864	0.323356	0.280011	0.258538	-0.0172368	-0.192356	0.0175613	-0.0766331	-0.0512306	-0.160411	-0.0709609	0.598273	1.94338	0.078047	-0.169657	0.26067	0.633661	1.80238
1.25	-0.014022	-0.0377223	0.046592	1.27964	0.929079	-0.2434	0.48659	0.0749896	-0.186076	0.315977	0.137653	-0.0845236	-0.0164984	-0.285206	-0.0168649	-0.244471	0.376348	0.244515	0.246483	-0.0172229	-0.183836	0.0377785	-0.0709205	-0.0534653	-0.163939	-0.0732687	0.59463	1.94488	0.0717254	-0.161568	0.255084	0.616334	1.80344
1.26	-0.0152425	-0.0472028	0.0441027	1.29401	0.928912	-0.24445	0.4903	0.0851827	-0.172103	0.346733	0.122491	-0.11704	-0.0165022	-0.264081	-0.0360661	-0.247553	0.43415	0.201506	0.229465	-0.0172091	-0.175751	0.0586213	-0.0654048	-0.0548036	-0.167886	-0.0746235	0.590536	1.94718	0.0655161	-0.15295	0.24737	0.598224	1.80463
1.27	-0.0160955	-0.0573134	0.041271	1.30829	0.92902	-0.245391	0.492016	0.0964854	-0.159092	0.375339	0.112953	-0.146517	-0.0165059	-0.239474	-0.0563752	-0.248003	0.496175	0.151565	0.208272	-0.0171952	-0.168327	0.0798343	-0.0602631	-0.0550628	-0.172119	-0.0751046	0.586021	1.95021	0.0595101	-0.144056	0.237759	0.579685	1.80594
1.28	-0.0165412	-0.0678562	0.0382105	1.32246	0.929403	-0.24622	0.491176	0.108766	-0.147272	0.400684	0.109073	-0.172296	-0.0165097	-0.211575	-0.0773525	-0.245729	0.561526	0.0959814	0.183951	-0.0171814	-0.161701	0.101078	-0.0556555	-0.0541228	-0.176485	-0.0747554	0.581145	1.9538	0.0537908	-0.135178	0.226651	0.561065	1.80738
